<svg width="50" height="50" viewBox="0 0 50 50" fill="none" xmlns="http://www.w3.org/2000/svg">
  <!-- Boxing gloves icon -->
  <path d="M15 10C17 7 20 5 23 5C27 5 30 8 30 12V15C30 17 28 20 25 20H23C20 20 18 17 18 15V12C18 10 16 8 14 8C12 8 10 10 10 12V25C10 30 14 34 19 34H23C28 34 32 30 32 25V20" stroke="#E02020" stroke-width="3" stroke-linecap="round"/>
  <path d="M40 10C38 7 35 5 32 5C28 5 25 8 25 12V15C25 17 27 20 30 20H32C35 20 37 17 37 15V12C37 10 39 8 41 8C43 8 45 10 45 12V25C45 30 41 34 36 34H32C27 34 23 30 23 25V20" stroke="#FFFFFF" stroke-width="3" stroke-linecap="round"/>

  <!-- Letter R for Rumble -->
  <path d="M25 40H30C32.7614 40 35 42.2386 35 45C35 47.7614 32.7614 50 30 50H25V40Z" fill="#E02020"/>
  <path d="M25 45H30L35 50H30L25 45Z" fill="#E02020"/>
</svg>
