<svg width="180" height="50" viewBox="0 0 180 50" fill="none" xmlns="http://www.w3.org/2000/svg">
  <!-- Boxing gloves icon -->
  <path d="M15 10C17 7 20 5 23 5C27 5 30 8 30 12V15C30 17 28 20 25 20H23C20 20 18 17 18 15V12C18 10 16 8 14 8C12 8 10 10 10 12V25C10 30 14 34 19 34H23C28 34 32 30 32 25V20" stroke="#E02020" stroke-width="3" stroke-linecap="round"/>
  <path d="M40 10C38 7 35 5 32 5C28 5 25 8 25 12V15C25 17 27 20 30 20H32C35 20 37 17 37 15V12C37 10 39 8 41 8C43 8 45 10 45 12V25C45 30 41 34 36 34H32C27 34 23 30 23 25V20" stroke="#FFFFFF" stroke-width="3" stroke-linecap="round"/>

  <!-- Text RUMBLE -->
  <path d="M60 15H65C67.7614 15 70 17.2386 70 20C70 22.7614 67.7614 25 65 25H60V15Z" fill="#E02020"/>
  <path d="M60 25H65L70 35H65L60 25Z" fill="#E02020"/>
  <path d="M75 15H80V30C80 32.7614 82.2386 35 85 35H90V30H85V15H90V10H75V15Z" fill="#E02020"/>
  <path d="M95 15H105C107.761 15 110 17.2386 110 20C110 22.7614 107.761 25 105 25H95V15Z" fill="#E02020"/>
  <path d="M95 25H105L110 35H105L100 25H95V35H95V25Z" fill="#E02020"/>
  <path d="M115 15H120V30H130V35H115V15Z" fill="#E02020"/>
  <path d="M135 15H150V20H140V22.5H150V27.5H140V30H150V35H135V15Z" fill="#E02020"/>

  <!-- Text BOXING -->
  <path d="M60 40H65C67.7614 40 70 42.2386 70 45C70 47.7614 67.7614 50 65 50H60V40Z" fill="#FFFFFF"/>
  <path d="M75 40H85C87.7614 40 90 42.2386 90 45C90 47.7614 87.7614 50 85 50H75V40Z" fill="#FFFFFF"/>
  <path d="M75 45H85V40H75V45Z" fill="#FFFFFF"/>
  <path d="M95 40H105L110 50H105L100 45H95V50H95V40Z" fill="#FFFFFF"/>
  <path d="M115 40H120V45H125V40H130V50H125V45H120V50H115V40Z" fill="#FFFFFF"/>
  <path d="M135 40H145V45H140V50H135V40Z" fill="#FFFFFF"/>
  <path d="M150 40H155V45H160V40H165V50H160V45H155V50H150V40Z" fill="#FFFFFF"/>
  <path d="M170 40H180L175 45L180 50H170V40Z" fill="#FFFFFF"/>
  <path d="M170 40H175V50H170V40Z" fill="#FFFFFF"/>
</svg>
